{"title":"Foucault contre lui meme AKA Foucault against himself - eng subs","uid":13754990,"size":652371614,"categoryP":"video","categoryS":"movies","magnet":"?xt=urn:btih:c8b2182cd30b764bbdbc78b7818aab1e4a881ac8&amp;dn=Foucault+contre+lui+meme+AKA+Foucault+against+himself+-+eng+subs&amp;tr=udp%3A%2F%2Ftracker.leechers-paradise.org%3A6969&amp;tr=udp%3A%2F%2Fzer0day.ch%3A1337&amp;tr=udp%3A%2F%2Fopen.demonii.com%3A1337&amp;tr=udp%3A%2F%2Ftracker.coppersurfer.tk%3A6969&amp;tr=udp%3A%2F%2Fexodus.desync.com%3A6969","seeders":1,"leechers":0,"uploader":null,"files":1,"time":1457186848,"description":"Divided into four chapters, FOUCAULT AGAINST HIMSELF focuses on Foucault's critique of psychiatry, his work on the history of sexuality, the growth of his radicalism arising from his research into the French penal system, the nature of knowledge and underlying structures of human behavior, and his immersion in American counter-cultural movements—in particular the resistance to current social structures that he found among sexual minority communities in San Francisco.\r\n\r\nThe film brings together leading philosophers, sociologists and historians—among them Leo Bersani, who first invited Foucault to speak at UC Berkeley—as well as footage of Foucault himself and French and American archival material depicting events that profoundly influenced him.\r\n\r\nFoucault was profoundly opposed to the notion of small fiefdoms of knowledge. His approach was eclectic (a philosopher writing extensively about history and surveying prisoners on their living conditions, to give two examples) and wide-ranging. Philosopher and art historian Georges Didi-Huberman calls him an intellectual &quot;nomad... crossing the territorial boundaries of knowledge.&quot;\r\n\r\nThere are certain threads that run through his work, in particular the critique of institutional power and the celebration of resistance, but it was also filled with fragmentary thoughts and contradictions.\r\n\r\nFOUCAULT AGAINST HIMSELF captures the energy and fierce intellect of the man, introducing us to the key elements of his work, while also acknowledging—even celebrating—its many contradictions.\r\n\r\nEnjoy!\r\n\r\nFile Information:\r\n\r\nComplete name : Francois Caillat - 2014 - Foucault against himself AKA Foucault contre lui meme.mkv\r\nFormat : Matroska\r\nFormat version : Version 2\r\nFile size : 622 MiB\r\nDuration : 53mn 19s\r\nOverall bit rate : 1 631 Kbps\r\nEncoded date : UTC 2016-03-05T11:32:03Z\r\nWriting application : HandBrake 0.10.5 2016021200\r\nWriting library : Lavf55.12.0 / Lavf55.12.0\r\n\r\nVideo\r\nID : 1\r\nFormat : AVC\r\nFormat/Info : Advanced Video Codec\r\nFormat profile :   \r\nFormat settings, CABAC : Yes\r\nFormat settings, ReFrames : 9 frames\r\nCodec ID : V_MPEG4/ISO/AVC\r\nDuration : 53mn 19s\r\nBit rate : 1 279 Kbps\r\nWidth : 716 pixels\r\nHeight : 572 pixels\r\nDisplay aspect ratio : 16:9\r\nFrame rate mode : Constant\r\nFrame rate : 25.000 fps\r\nColor space : YUV\r\nChroma subsampling : 4:2:0\r\nBit depth : 8 bits\r\nScan type : Progressive\r\nBits/(Pixel*Frame) : 0.125\r\nStream size : 488 MiB (78%)\r\nWriting library : x264 core 148 r2643 5c65704\r\nEncoding settings : cabac=1 / ref=9 / deblock=1:-3:-3 / analyse=0x1:0x131 / me=umh / subme=9 / psy=1 / psy_rd=1,00:0,00 / mixed_ref=1 / me_range=24 / chroma_me=1 / trellis=2 / 8x8dct=0 / cqm=0 / deadzone=21,11 / fast_pskip=0 / chroma_qp_offset=-2 / threads=6 / lookahead_threads=1 / sliced_threads=0 / nr=0 / decimate=1 / interlaced=0 / bluray_compat=0 / constrained_intra=0 / bframes=16 / b_pyramid=2 / b_adapt=2 / b_bias=0 / direct=3 / weightb=1 / open_gop=0 / weightp=2 / keyint=250 / keyint_min=25 / scenecut=40 / intra_refresh=0 / rc_lookahead=60 / rc=crf / mbtree=1 / crf=20,0 / qcomp=0,60 / qpmin=0 / qpmax=69 / qpstep=4 / vbv_maxrate=20000 / vbv_bufsize=25000 / crf_max=0,0 / nal_hrd=none / filler=0 / ip_ratio=1,40 / aq=1:1,00\r\nDefault : Yes\r\nForced : No\r\nColor range : Limited\r\nColor primaries : BT.601 PAL\r\nTransfer characteristics : BT.709\r\nMatrix coefficients : BT.601\r\n\r\nAudio\r\nID : 2\r\nFormat : AC-3\r\nFormat/Info : Audio Coding 3\r\nMode extension : CM (complete main)\r\nFormat settings, Endianness : Big\r\nCodec ID : A_AC3\r\nDuration : 53mn 19s\r\nBit rate mode : Constant\r\nBit rate : 320 Kbps\r\nChannel(s) : 2 channels\r\nChannel positions : Front: L R\r\nSampling rate : 48.0 KHz\r\nFrame rate : 31.250 fps (1536 spf)\r\nCompression mode : Lossy\r\nStream size : 122 MiB (20%)\r\nTitle : Stereo\r\nDefault : Yes\r\nForced : No\r\n\r\nText\r\nID : 3\r\nFormat : ASS\r\nCodec ID : S_TEXT/ASS\r\nCodec ID/Info : Advanced Sub Station Alpha\r\nCompression mode : Lossless\r\nLanguage : English\r\nDefault : Yes\r\nForced : No\r\n\r\nMenu\r\n00:00:00.000 : :Chapter 1\r\n00:03:14.400 : :Chapter 2\r\n00:11:34.880 : :Chapter 3\r\n00:26:26.080 : :Chapter 4\r\n00:37:54.080 : :Chapter 5\r\n00:46:36.640 : :Chapter 6","torrent":{"xt":"urn:btih:c8b2182cd30b764bbdbc78b7818aab1e4a881ac8","amp;dn":"Foucault+contre+lui+meme+AKA+Foucault+against+himself+-+eng+subs","amp;tr":["udp%3A%2F%2Ftracker.leechers-paradise.org%3A6969","udp%3A%2F%2Fzer0day.ch%3A1337","udp%3A%2F%2Fopen.demonii.com%3A1337","udp%3A%2F%2Ftracker.coppersurfer.tk%3A6969","udp%3A%2F%2Fexodus.desync.com%3A6969"],"infoHash":"c8b2182cd30b764bbdbc78b7818aab1e4a881ac8","infoHashBuffer":{"type":"Buffer","data":[200,178,24,44,211,11,118,75,189,188,120,183,129,138,171,30,74,136,26,200]},"announce":[],"urlList":[]}}